<svg id="visual" viewBox="0 0 900 600" width="900" height="600" xmlns="http://www.w3.org/2000/svg" xmlns:xlink="http://www.w3.org/1999/xlink" version="1.1"><rect x="0" y="0" width="900" height="600" fill="#000000"></rect><defs><linearGradient id="grad1_0" x1="33.3%" y1="0%" x2="100%" y2="100%"><stop offset="20%" stop-color="#ffffff" stop-opacity="1"></stop><stop offset="80%" stop-color="#ffffff" stop-opacity="1"></stop></linearGradient></defs><defs><linearGradient id="grad1_1" x1="33.3%" y1="0%" x2="100%" y2="100%"><stop offset="20%" stop-color="#ffffff" stop-opacity="1"></stop><stop offset="80%" stop-color="#c6c6c6" stop-opacity="1"></stop></linearGradient></defs><defs><linearGradient id="grad1_2" x1="33.3%" y1="0%" x2="100%" y2="100%"><stop offset="20%" stop-color="#919191" stop-opacity="1"></stop><stop offset="80%" stop-color="#c6c6c6" stop-opacity="1"></stop></linearGradient></defs><defs><linearGradient id="grad1_3" x1="33.3%" y1="0%" x2="100%" y2="100%"><stop offset="20%" stop-color="#919191" stop-opacity="1"></stop><stop offset="80%" stop-color="#5e5e5e" stop-opacity="1"></stop></linearGradient></defs><defs><linearGradient id="grad1_4" x1="33.3%" y1="0%" x2="100%" y2="100%"><stop offset="20%" stop-color="#303030" stop-opacity="1"></stop><stop offset="80%" stop-color="#5e5e5e" stop-opacity="1"></stop></linearGradient></defs><defs><linearGradient id="grad1_5" x1="33.3%" y1="0%" x2="100%" y2="100%"><stop offset="20%" stop-color="#303030" stop-opacity="1"></stop><stop offset="80%" stop-color="#000000" stop-opacity="1"></stop></linearGradient></defs><defs><linearGradient id="grad2_0" x1="0%" y1="0%" x2="66.7%" y2="100%"><stop offset="20%" stop-color="#ffffff" stop-opacity="1"></stop><stop offset="80%" stop-color="#ffffff" stop-opacity="1"></stop></linearGradient></defs><defs><linearGradient id="grad2_1" x1="0%" y1="0%" x2="66.7%" y2="100%"><stop offset="20%" stop-color="#c6c6c6" stop-opacity="1"></stop><stop offset="80%" stop-color="#ffffff" stop-opacity="1"></stop></linearGradient></defs><defs><linearGradient id="grad2_2" x1="0%" y1="0%" x2="66.7%" y2="100%"><stop offset="20%" stop-color="#c6c6c6" stop-opacity="1"></stop><stop offset="80%" stop-color="#919191" stop-opacity="1"></stop></linearGradient></defs><defs><linearGradient id="grad2_3" x1="0%" y1="0%" x2="66.7%" y2="100%"><stop offset="20%" stop-color="#5e5e5e" stop-opacity="1"></stop><stop offset="80%" stop-color="#919191" stop-opacity="1"></stop></linearGradient></defs><defs><linearGradient id="grad2_4" x1="0%" y1="0%" x2="66.7%" y2="100%"><stop offset="20%" stop-color="#5e5e5e" stop-opacity="1"></stop><stop offset="80%" stop-color="#303030" stop-opacity="1"></stop></linearGradient></defs><defs><linearGradient id="grad2_5" x1="0%" y1="0%" x2="66.7%" y2="100%"><stop offset="20%" stop-color="#000000" stop-opacity="1"></stop><stop offset="80%" stop-color="#303030" stop-opacity="1"></stop></linearGradient></defs><g transform="translate(900, 0)"><path d="M0 486.7C-55.4 450.8 -110.8 414.9 -159.6 385.3C-208.3 355.6 -250.4 332.1 -302.6 302.6C-354.9 273.2 -417.3 237.7 -449.7 186.3C-482.1 134.8 -484.4 67.4 -486.7 0L0 0Z" fill="#1b1b1b"></path><path d="M0 405.6C-46.2 375.7 -92.4 345.8 -133 321C-173.6 296.3 -208.7 276.8 -252.2 252.2C-295.7 227.6 -347.8 198.1 -374.7 155.2C-401.7 112.4 -403.7 56.2 -405.6 0L0 0Z" fill="#474747"></path><path d="M0 324.5C-36.9 300.6 -73.9 276.6 -106.4 256.8C-138.9 237 -166.9 221.4 -201.8 201.8C-236.6 182.1 -278.2 158.5 -299.8 124.2C-321.4 89.9 -322.9 44.9 -324.5 0L0 0Z" fill="#777777"></path><path d="M0 243.4C-27.7 225.4 -55.4 207.5 -79.8 192.6C-104.2 177.8 -125.2 166.1 -151.3 151.3C-177.4 136.6 -208.7 118.9 -224.8 93.1C-241 67.4 -242.2 33.7 -243.4 0L0 0Z" fill="#ababab"></path><path d="M0 162.2C-18.5 150.3 -36.9 138.3 -53.2 128.4C-69.4 118.5 -83.5 110.7 -100.9 100.9C-118.3 91.1 -139.1 79.2 -149.9 62.1C-160.7 44.9 -161.5 22.5 -162.2 0L0 0Z" fill="#e2e2e2"></path><path d="M0 81.1C-9.2 75.1 -18.5 69.2 -26.6 64.2C-34.7 59.3 -41.7 55.4 -50.4 50.4C-59.1 45.5 -69.6 39.6 -74.9 31C-80.3 22.5 -80.7 11.2 -81.1 0L0 0Z" fill="#ffffff"></path></g><g transform="translate(0, 600)"><path d="M0 -486.7C56.4 -465.8 112.9 -444.9 176.4 -425.9C240 -406.9 310.6 -389.8 344.2 -344.2C377.7 -298.6 374.2 -224.4 391.7 -162.3C409.3 -100.1 448 -50.1 486.7 0L0 0Z" fill="#1b1b1b"></path><path d="M0 -405.6C47 -388.2 94.1 -370.8 147 -354.9C200 -339.1 258.9 -324.8 286.8 -286.8C314.8 -248.8 311.8 -187 326.4 -135.2C341.1 -83.4 373.4 -41.7 405.6 0L0 0Z" fill="#474747"></path><path d="M0 -324.5C37.6 -310.6 75.2 -296.6 117.6 -283.9C160 -271.3 207.1 -259.9 229.5 -229.5C251.8 -199 249.4 -149.6 261.1 -108.2C272.9 -66.8 298.7 -33.4 324.5 0L0 0Z" fill="#777777"></path><path d="M0 -243.4C28.2 -232.9 56.4 -222.5 88.2 -213C120 -203.5 155.3 -194.9 172.1 -172.1C188.9 -149.3 187.1 -112.2 195.9 -81.1C204.6 -50.1 224 -25 243.4 0L0 0Z" fill="#ababab"></path><path d="M0 -162.2C18.8 -155.3 37.6 -148.3 58.8 -142C80 -135.6 103.5 -129.9 114.7 -114.7C125.9 -99.5 124.7 -74.8 130.6 -54.1C136.4 -33.4 149.3 -16.7 162.2 0L0 0Z" fill="#e2e2e2"></path><path d="M0 -81.1C9.4 -77.6 18.8 -74.2 29.4 -71C40 -67.8 51.8 -65 57.4 -57.4C63 -49.8 62.4 -37.4 65.3 -27C68.2 -16.7 74.7 -8.3 81.1 0L0 0Z" fill="#ffffff"></path></g></svg>