<svg id="visual" viewBox="0 0 900 600" width="900" height="600" xmlns="http://www.w3.org/2000/svg" xmlns:xlink="http://www.w3.org/1999/xlink" version="1.1"><rect x="0" y="0" width="900" height="600" fill="#03233c"></rect><defs><linearGradient id="grad1_0" x1="33.3%" y1="0%" x2="100%" y2="100%"><stop offset="20%" stop-color="#03233c" stop-opacity="1"></stop><stop offset="80%" stop-color="#03233c" stop-opacity="1"></stop></linearGradient></defs><defs><linearGradient id="grad2_0" x1="0%" y1="0%" x2="66.7%" y2="100%"><stop offset="20%" stop-color="#03233c" stop-opacity="1"></stop><stop offset="80%" stop-color="#03233c" stop-opacity="1"></stop></linearGradient></defs><g transform="translate(900, 0)"><path d="M0 297.5C-15.1 291.9 -30.2 286.4 -44.4 280.5C-58.6 274.6 -72 268.5 -85.9 264.4C-99.8 260.3 -114.3 258.4 -130.3 255.7C-146.3 253.1 -163.8 249.7 -171 235.4C-178.3 221.2 -175.4 196 -183.1 183.1C-190.9 170.3 -209.4 169.8 -226.5 164.6C-243.7 159.3 -259.4 149.3 -265 135C-270.6 120.8 -266.1 102.2 -266.3 86.5C-266.5 70.8 -271.5 57.9 -277.5 44C-283.5 30 -290.5 15 -297.5 0L0 0Z" fill="#a1a1a0"></path></g><g transform="translate(0, 600)"><path d="M0 -297.5C11.3 -267.5 22.5 -237.5 37.1 -234.1C51.6 -230.7 69.5 -253.8 84.4 -259.6C99.2 -265.5 111.1 -254 127.6 -250.4C144 -246.7 165 -251 174.8 -240.6C184.7 -230.3 183.5 -205.5 192.3 -192.3C201.2 -179.2 220.2 -177.6 233.8 -169.9C247.4 -162.1 255.6 -148.1 262.8 -133.9C270.1 -119.8 276.4 -105.5 278.7 -90.5C280.9 -75.5 279 -59.8 281.5 -44.6C283.9 -29.4 290.7 -14.7 297.5 0L0 0Z" fill="#a1a1a0"></path></g></svg>