<svg id="visual" viewBox="0 0 900 600" width="900" height="600" xmlns="http://www.w3.org/2000/svg" xmlns:xlink="http://www.w3.org/1999/xlink" version="1.1"><path d="M773 600L776 590.8C779 581.7 785 563.3 794 545.2C803 527 815 509 816.5 490.8C818 472.7 809 454.3 803 436.2C797 418 794 400 797 381.8C800 363.7 809 345.3 806 327.2C803 309 788 291 776 272.8C764 254.7 755 236.3 744.5 218.2C734 200 722 182 737 163.8C752 145.7 794 127.3 801.5 109.2C809 91 782 73 779 54.8C776 36.7 797 18.3 807.5 9.2L818 0L900 0L900 9.2C900 18.3 900 36.7 900 54.8C900 73 900 91 900 109.2C900 127.3 900 145.7 900 163.8C900 182 900 200 900 218.2C900 236.3 900 254.7 900 272.8C900 291 900 309 900 327.2C900 345.3 900 363.7 900 381.8C900 400 900 418 900 436.2C900 454.3 900 472.7 900 490.8C900 509 900 527 900 545.2C900 563.3 900 581.7 900 590.8L900 600Z" fill="#282828"></path><path d="M620 600L632 590.8C644 581.7 668 563.3 662 545.2C656 527 620 509 600.5 490.8C581 472.7 578 454.3 594.5 436.2C611 418 647 400 665 381.8C683 363.7 683 345.3 665 327.2C647 309 611 291 608 272.8C605 254.7 635 236.3 629 218.2C623 200 581 182 591.5 163.8C602 145.7 665 127.3 672.5 109.2C680 91 632 73 609.5 54.8C587 36.7 590 18.3 591.5 9.2L593 0L819 0L808.5 9.2C798 18.3 777 36.7 780 54.8C783 73 810 91 802.5 109.2C795 127.3 753 145.7 738 163.8C723 182 735 200 745.5 218.2C756 236.3 765 254.7 777 272.8C789 291 804 309 807 327.2C810 345.3 801 363.7 798 381.8C795 400 798 418 804 436.2C810 454.3 819 472.7 817.5 490.8C816 509 804 527 795 545.2C786 563.3 780 581.7 777 590.8L774 600Z" fill="#000000"></path><path d="M476 600L503 590.8C530 581.7 584 563.3 584 545.2C584 527 530 509 494 490.8C458 472.7 440 454.3 462.5 436.2C485 418 548 400 570.5 381.8C593 363.7 575 345.3 552.5 327.2C530 309 503 291 503 272.8C503 254.7 530 236.3 530 218.2C530 200 503 182 516.5 163.8C530 145.7 584 127.3 582.5 109.2C581 91 524 73 497 54.8C470 36.7 473 18.3 474.5 9.2L476 0L594 0L592.5 9.2C591 18.3 588 36.7 610.5 54.8C633 73 681 91 673.5 109.2C666 127.3 603 145.7 592.5 163.8C582 182 624 200 630 218.2C636 236.3 606 254.7 609 272.8C612 291 648 309 666 327.2C684 345.3 684 363.7 666 381.8C648 400 612 418 595.5 436.2C579 454.3 582 472.7 601.5 490.8C621 509 657 527 663 545.2C669 563.3 645 581.7 633 590.8L621 600Z" fill="#000000"></path><path d="M215 600L245 590.8C275 581.7 335 563.3 338 545.2C341 527 287 509 257 490.8C227 472.7 221 454.3 249.5 436.2C278 418 341 400 372.5 381.8C404 363.7 404 345.3 386 327.2C368 309 332 291 323 272.8C314 254.7 332 236.3 305 218.2C278 200 206 182 216.5 163.8C227 145.7 320 127.3 353 109.2C386 91 359 73 317 54.8C275 36.7 218 18.3 189.5 9.2L161 0L477 0L475.5 9.2C474 18.3 471 36.7 498 54.8C525 73 582 91 583.5 109.2C585 127.3 531 145.7 517.5 163.8C504 182 531 200 531 218.2C531 236.3 504 254.7 504 272.8C504 291 531 309 553.5 327.2C576 345.3 594 363.7 571.5 381.8C549 400 486 418 463.5 436.2C441 454.3 459 472.7 495 490.8C531 509 585 527 585 545.2C585 563.3 531 581.7 504 590.8L477 600Z" fill="#000000"></path><path d="M0 600L0 590.8C0 581.7 0 563.3 0 545.2C0 527 0 509 0 490.8C0 472.7 0 454.3 0 436.2C0 418 0 400 0 381.8C0 363.7 0 345.3 0 327.2C0 309 0 291 0 272.8C0 254.7 0 236.3 0 218.2C0 200 0 182 0 163.8C0 145.7 0 127.3 0 109.2C0 91 0 73 0 54.8C0 36.7 0 18.3 0 9.2L0 0L162 0L190.5 9.2C219 18.3 276 36.7 318 54.8C360 73 387 91 354 109.2C321 127.3 228 145.7 217.5 163.8C207 182 279 200 306 218.2C333 236.3 315 254.7 324 272.8C333 291 369 309 387 327.2C405 345.3 405 363.7 373.5 381.8C342 400 279 418 250.5 436.2C222 454.3 228 472.7 258 490.8C288 509 342 527 339 545.2C336 563.3 276 581.7 246 590.8L216 600Z" fill="#282828"></path></svg>